<svg width="16" height="16" viewBox="0 0 16 16" fill="none" xmlns="http://www.w3.org/2000/svg">
<g id="star">
<path id="Vector" d="M14.1887 5.5169L10.2215 4.94034L8.4481 1.34503C8.39966 1.24659 8.31998 1.1669 8.22154 1.11846C7.97466 0.996588 7.67466 1.09815 7.55123 1.34503L5.77779 4.94034L1.8106 5.5169C1.70123 5.53253 1.60123 5.58409 1.52466 5.66221C1.4321 5.75735 1.3811 5.88534 1.38286 6.01806C1.38461 6.15078 1.43899 6.27738 1.53404 6.37003L4.40435 9.16846L3.72623 13.12C3.71032 13.2119 3.7205 13.3065 3.75559 13.3929C3.79068 13.4794 3.84929 13.5542 3.92477 13.609C4.00025 13.6639 4.08958 13.6964 4.18263 13.7031C4.27568 13.7097 4.36873 13.6901 4.45123 13.6466L7.99966 11.781L11.5481 13.6466C11.645 13.6981 11.7575 13.7153 11.8653 13.6966C12.1372 13.6497 12.32 13.3919 12.2731 13.12L11.595 9.16846L14.4653 6.37003C14.5434 6.29346 14.595 6.19346 14.6106 6.08409C14.6528 5.81065 14.4622 5.55753 14.1887 5.5169Z" fill="#E7A909"/>
</g>
</svg>
